<svg width="36" height="26" viewBox="0 0 36 26" fill="none" xmlns="http://www.w3.org/2000/svg">
<path d="M0 8H36V18H0V8Z" fill="#0C4076"/>
<path d="M0 22C0 23.0609 0.421427 24.0783 1.17157 24.8284C1.92172 25.5786 2.93913 26 4 26H32C33.0609 26 34.0783 25.5786 34.8284 24.8284C35.5786 24.0783 36 23.0609 36 22V18H0V22Z" fill="white"/>
<path d="M36 4C36 2.93913 35.5786 1.92172 34.8284 1.17157C34.0783 0.421427 33.0609 0 32 0H4C2.93913 0 1.92172 0.421427 1.17157 1.17157C0.421427 1.92172 0 2.93913 0 4L0 8H36V4ZM7 8V17.5C7 18.9587 7.57946 20.3576 8.61091 21.3891C9.64236 22.4205 11.0413 23 12.5 23C13.9587 23 15.3576 22.4205 16.3891 21.3891C17.4205 20.3576 18 18.9587 18 17.5V8H7Z" fill="#C6363C"/>
<path d="M12.5 2.062C8.562 2.062 7.328 3.734 7.656 4.359C7.984 4.984 8.968 6.593 8.968 6.593C8.968 6.593 8.656 6.718 8.968 7.343C9.28 7.968 10.499 7.546 12.499 7.546C14.499 7.546 15.718 7.968 16.03 7.343C16.342 6.718 16.03 6.593 16.03 6.593C16.03 6.593 17.014 4.984 17.343 4.359C17.672 3.734 16.438 2.062 12.5 2.062ZM9.062 5.031C8.779 5.119 9.062 5.984 8.962 5.61C8.88 5.301 8.562 5.172 8.562 5.344C8.562 5.516 8.437 5.344 8.468 5.032C8.499 4.719 8.406 4.532 8.218 4.266C8.031 4 8.031 3.766 8.266 3.609C8.5 3.453 9.016 3.328 9.016 3.328C9.016 3.328 9.219 4.219 9.328 4.422C9.437 4.625 9.64 4.758 9.64 4.758C9.64 4.758 9.546 4.906 9.64 4.984C9.734 5.062 9.843 5.25 9.843 5.25C9.843 5.25 9.5 4.969 9.438 5.031C9.376 5.093 9.516 5.172 9.5 5.281C9.484 5.391 9.312 4.953 9.062 5.031ZM12.25 5.047C12.172 5.125 12.109 4.984 11.953 4.875C11.797 4.766 11.703 4.829 11.734 4.954C11.765 5.079 11.546 5.063 11.546 5.251C11.546 5.439 11.343 5.36 11.343 5.36C11.343 5.36 11.593 4.704 11.171 4.719C10.932 4.728 11.015 5.219 11.171 5.391C11.102 5.286 10.905 5.282 10.741 5.157C10.577 5.032 10.764 4.828 10.639 4.875C10.514 4.922 10.436 5.125 10.311 5.172C10.186 5.219 10.249 5.03 10.311 4.875C10.3293 4.83388 10.3322 4.78751 10.3189 4.74448C10.3057 4.70145 10.2773 4.66468 10.239 4.641C10.239 4.641 10.249 4.532 10.343 4.469C10.437 4.407 10.468 4.297 10.343 4.172C10.218 4.047 9.766 3.344 9.906 3.109C10.047 2.875 10.515 2.609 11.828 2.64C12.062 3.718 11.703 4.249 11.703 4.249C11.703 4.249 11.969 4.421 12.047 4.515C11.859 4.594 12 4.672 12.125 4.781C12.25 4.891 12.328 4.969 12.25 5.047ZM14.688 4.875C14.75 5.031 14.813 5.219 14.688 5.172C14.563 5.125 14.485 4.922 14.36 4.875C14.235 4.828 14.422 5.032 14.258 5.157C14.094 5.282 13.898 5.286 13.828 5.391C13.984 5.219 14.067 4.728 13.828 4.719C13.406 4.703 13.656 5.36 13.656 5.36C13.656 5.36 13.453 5.438 13.453 5.251C13.453 5.064 13.234 5.079 13.265 4.954C13.296 4.829 13.203 4.766 13.046 4.875C12.89 4.984 12.827 5.125 12.749 5.047C12.671 4.969 12.749 4.891 12.874 4.781C13 4.672 13.141 4.594 12.953 4.516C13.031 4.422 13.297 4.25 13.297 4.25C13.297 4.25 12.938 3.719 13.172 2.641C14.484 2.61 14.953 2.875 15.094 3.11C15.235 3.344 14.782 4.048 14.656 4.172C14.53 4.296 14.562 4.406 14.656 4.469C14.75 4.531 14.76 4.641 14.76 4.641C14.76 4.641 14.625 4.719 14.688 4.875ZM16.781 4.266C16.593 4.532 16.5 4.719 16.531 5.032C16.562 5.344 16.437 5.516 16.437 5.344C16.437 5.172 16.119 5.302 16.037 5.61C15.937 5.984 16.22 5.12 15.937 5.031C15.687 4.953 15.359 5.703 15.437 5.625C15.515 5.547 15.625 5.094 15.562 5.031C15.5 4.968 15.156 5.25 15.156 5.25C15.156 5.25 15.265 5.062 15.359 4.984C15.453 4.906 15.359 4.758 15.359 4.758C15.359 4.758 15.562 4.625 15.671 4.422C15.78 4.219 15.983 3.328 15.983 3.328C15.983 3.328 16.499 3.453 16.733 3.609C16.967 3.765 16.969 4 16.781 4.266Z" fill="#EDB92E"/>
<path d="M12.609 2.24199C12.609 2.28973 12.59 2.33552 12.5563 2.36927C12.5225 2.40303 12.4767 2.42199 12.429 2.42199C12.3813 2.42199 12.3355 2.40303 12.3017 2.36927C12.268 2.33552 12.249 2.28973 12.249 2.24199V0.663993C12.249 0.616254 12.268 0.570471 12.3017 0.536714C12.3355 0.502958 12.3813 0.483994 12.429 0.483994C12.4767 0.483994 12.5225 0.502958 12.5563 0.536714C12.59 0.570471 12.609 0.616254 12.609 0.663993V2.24199Z" fill="#FFAC33"/>
<path d="M12.969 1.086C12.9691 1.10757 12.965 1.12896 12.9568 1.14891C12.9486 1.16887 12.9365 1.187 12.9213 1.20226C12.906 1.21751 12.8879 1.22959 12.8679 1.23778C12.8479 1.24598 12.8266 1.25013 12.805 1.25H12.024C12.0024 1.25013 11.981 1.24598 11.9611 1.23778C11.9411 1.22959 11.923 1.21751 11.9077 1.20226C11.8925 1.187 11.8804 1.16887 11.8722 1.14891C11.864 1.12896 11.8599 1.10757 11.86 1.086C11.86 0.994997 11.933 0.921997 12.024 0.921997H12.805C12.896 0.921997 12.969 0.994997 12.969 1.086Z" fill="#EDB92E"/>
<path d="M13.016 2.06201C13.016 2.22167 12.9526 2.37479 12.8397 2.48768C12.7268 2.60058 12.5737 2.66401 12.414 2.66401C12.2543 2.66401 12.1012 2.60058 11.9883 2.48768C11.8754 2.37479 11.812 2.22167 11.812 2.06201C11.812 1.90235 11.8754 1.74923 11.9883 1.63633C12.1012 1.52343 12.2543 1.46001 12.414 1.46001C12.5737 1.46001 12.7268 1.52343 12.8397 1.63633C12.9526 1.74923 13.016 1.90235 13.016 2.06201ZM9.60399 7.27601C9.60399 7.42301 9.43499 7.54201 9.22599 7.54201C9.01699 7.54201 8.84799 7.42301 8.84799 7.27601C8.84799 7.13001 9.01699 7.01101 9.22599 7.01101C9.43499 7.01101 9.60399 7.12901 9.60399 7.27601Z" fill="#0C4076"/>
<path d="M11.125 7.185C11.125 7.332 10.956 7.451 10.747 7.451C10.538 7.451 10.369 7.332 10.369 7.185C10.369 7.039 10.538 6.92 10.747 6.92C10.955 6.92 11.125 7.039 11.125 7.185ZM14.5 7.185C14.5 7.332 14.331 7.451 14.122 7.451C13.913 7.451 13.744 7.332 13.744 7.185C13.744 7.039 13.913 6.92 14.122 6.92C14.33 6.92 14.5 7.039 14.5 7.185Z" fill="#C6363C"/>
<path d="M16.062 7.276C16.062 7.423 15.893 7.542 15.684 7.542C15.475 7.542 15.306 7.423 15.306 7.276C15.306 7.13 15.475 7.011 15.684 7.011C15.893 7.011 16.062 7.129 16.062 7.276ZM12.808 7.166C12.808 7.313 12.639 7.432 12.43 7.432C12.221 7.432 12.052 7.313 12.052 7.166C12.052 7.019 12.221 6.901 12.43 6.901C12.639 6.901 12.808 7.019 12.808 7.166Z" fill="#0C4076"/>
<path d="M10.286 17.562C9.94401 18.338 9.90801 18.72 9.50301 18.693C9.09701 18.666 8.811 18.597 8.811 18.761C8.811 18.924 9.45601 18.856 9.45601 18.856C9.45601 18.856 8.847 19.116 8.967 19.415C9.086 19.715 9.61201 19.034 9.61201 19.034C9.61201 19.034 9.719 19.061 9.922 18.897C10.125 18.734 10.662 17.944 10.662 17.944L10.286 17.562ZM14.698 17.562C15.04 18.338 15.076 18.72 15.481 18.693C15.887 18.666 16.173 18.597 16.173 18.761C16.173 18.924 15.529 18.856 15.529 18.856C15.529 18.856 16.138 19.116 16.018 19.415C15.899 19.715 15.373 19.034 15.373 19.034C15.373 19.034 15.266 19.061 15.063 18.897C14.86 18.734 14.323 17.944 14.323 17.944L14.698 17.562Z" fill="#EDB92E"/>
<path d="M17.114 10.688C16.938 9.48 15.801 9.855 15.318 10.688C14.835 11.521 14.418 12.021 13.971 11.438C13.524 10.855 13.229 10.23 13.875 9.438L14.521 8.646C14.429 8.167 14.042 8.271 13.488 8.5C12.934 8.729 12.584 8.625 12.639 8.875C12.695 9.125 12.897 9.146 12.897 9.146C12.897 9.146 12.548 9.486 12.456 10.659C12.364 9.486 12.015 9.146 12.015 9.146C12.015 9.146 12.218 9.125 12.273 8.875C12.328 8.625 11.978 8.729 11.424 8.5C10.87 8.271 10.483 8.167 10.391 8.646L11.037 9.438C11.683 10.23 11.388 10.855 10.941 11.438C10.495 12.021 10.077 11.584 9.59401 10.75C9.11101 9.917 7.97301 9.542 7.79801 10.75C7.62201 11.958 7.82601 14.062 7.82601 14.062C7.82601 14.062 7.71501 15.208 7.93701 16.187C8.15801 17.166 8.28801 18.041 7.93701 18.791C8.32401 18.687 8.56401 18.187 8.56401 18.187C8.56401 18.187 8.43501 18.791 8.67501 18.729C8.91501 18.667 8.97001 18.208 9.15401 18.041C9.33901 17.875 9.48701 17.5 9.48701 17.5C9.48701 17.5 9.87501 17.354 9.48701 18C9.80101 18.021 10.004 17.812 10.004 17.812L10.114 18.396L10.299 18.084L10.391 18.646L10.723 18.104L10.941 18.354C10.941 18.354 10.982 17.292 11.277 17.5C11.572 17.708 11.59 18.396 11.388 18.812C11.185 19.228 11.388 19.396 11.388 19.396C11.388 19.396 11.093 19.834 10.942 20.084C10.791 20.334 11.02 20.625 11.02 20.625C11.02 20.625 10.448 21.479 10.607 21.813C10.761 22.133 11.714 22.337 12.411 22.352L12.417 22.355L12.456 22.354L12.495 22.355L12.501 22.352C13.198 22.337 14.151 22.133 14.305 21.813C14.465 21.48 13.892 20.625 13.892 20.625C13.892 20.625 14.12 20.334 13.97 20.084C13.819 19.834 13.523 19.396 13.523 19.396C13.523 19.396 13.726 19.228 13.523 18.812C13.321 18.396 13.339 17.708 13.634 17.5C13.929 17.292 13.969 18.354 13.969 18.354L14.187 18.104L14.519 18.646L14.611 18.084L14.796 18.396L14.906 17.812C14.906 17.812 15.109 18.02 15.423 18C15.035 17.354 15.423 17.5 15.423 17.5C15.423 17.5 15.571 17.875 15.755 18.042C15.939 18.209 15.995 18.667 16.235 18.73C16.475 18.792 16.346 18.188 16.346 18.188C16.346 18.188 16.586 18.688 16.973 18.792C16.623 18.042 16.752 17.166 16.973 16.188C17.195 15.209 17.084 14.063 17.084 14.063C17.084 14.063 17.29 11.896 17.114 10.688Z" fill="white"/>
<path d="M11.891 9.31201C11.451 8.89001 10.353 8.34301 9.98901 8.42101C9.62501 8.50001 9.33301 8.75001 9.60401 9.14101C9.87501 9.53201 9.98901 9.51601 9.98901 9.51601C9.98901 9.51601 10.422 9.12501 10.61 9.34401C10.798 9.56301 10.641 9.64101 10.298 9.67201C9.95401 9.70301 9.60501 9.46901 9.60501 9.46901C9.60501 9.46901 9.71801 9.87501 10.195 9.92201C10.516 10.234 10.921 10 11.125 10C11.329 10 12.281 9.68801 11.891 9.31201ZM13.022 9.31201C13.462 8.89001 14.56 8.34301 14.924 8.42101C15.288 8.49901 15.58 8.74901 15.309 9.14001C15.038 9.53101 14.924 9.51501 14.924 9.51501C14.924 9.51501 14.491 9.12401 14.303 9.34301C14.115 9.56201 14.272 9.64001 14.615 9.67101C14.959 9.70201 15.308 9.46801 15.308 9.46801C15.308 9.46801 15.195 9.87401 14.718 9.92101C14.397 10.234 13.992 10 13.788 10C13.584 10 12.631 9.68801 13.022 9.31201ZM9.96901 20.199C10.106 19.883 10.01 19.838 9.90001 19.728C9.82795 19.6525 9.77153 19.5634 9.73401 19.466C9.73401 19.466 9.67901 19.618 9.56801 19.728C9.45701 19.837 9.36101 19.882 9.49801 20.199C9.16501 20.002 9.11001 20.363 9.26301 20.582C9.30601 20.385 9.56801 20.43 9.56801 20.67C9.56801 20.91 9.35101 20.801 9.37701 20.899C9.40401 20.998 9.60201 21.205 9.73301 21.205C9.86401 21.205 10.063 20.998 10.089 20.899C10.116 20.8 9.89901 20.91 9.89901 20.67C9.89901 20.43 10.16 20.385 10.204 20.582C10.358 20.363 10.303 20.002 9.96901 20.199ZM15.407 20.199C15.544 19.883 15.448 19.838 15.337 19.728C15.2649 19.6525 15.2085 19.5634 15.171 19.466C15.171 19.466 15.116 19.618 15.005 19.728C14.894 19.837 14.798 19.882 14.935 20.199C14.602 20.002 14.547 20.363 14.7 20.582C14.743 20.385 15.005 20.43 15.005 20.67C15.005 20.91 14.788 20.801 14.815 20.899C14.841 20.998 15.04 21.205 15.171 21.205C15.302 21.205 15.501 20.998 15.527 20.899C15.554 20.8 15.337 20.91 15.337 20.67C15.337 20.43 15.598 20.385 15.642 20.582C15.795 20.363 15.741 20.002 15.407 20.199Z" fill="#EDB92E"/>
<path d="M10.244 11.875V15.734C10.244 16.3265 10.4794 16.8947 10.8983 17.3137C11.3173 17.7326 11.8855 17.968 12.478 17.968C13.0705 17.968 13.6387 17.7326 14.0577 17.3137C14.4766 16.8947 14.712 16.3265 14.712 15.734V11.875H10.244Z" fill="#C6363C"/>
<path d="M14.712 14.172H12.96V11.875H11.998V14.172H10.245V15.135H11.998V17.914C12.153 17.948 12.313 17.969 12.479 17.969C12.645 17.969 12.805 17.948 12.961 17.914V15.135H14.714V14.172H14.712Z" fill="#EEEEEE"/>
</svg>
